<?xml version="1.0" encoding="utf-8"?>
<svg version="1.1" xmlns="http://www.w3.org/2000/svg" xmlns:xlink="http://www.w3.org/1999/xlink" x="0px" y="0px"
	 viewBox="0 0 64 64" style="enable-background:new 0 0 64 64;" xml:space="preserve">
<path fill="#c9a85e" d="M32,0C14.3,0,0,14.3,0,32s14.3,32,32,32s32-14.3,32-32S49.7,0,32,0z M32,58C17.6,58,6,46.4,6,32
	S17.6,6,32,6s26,11.6,26,26S46.4,58,32,58z"/>
<path fill="#c9a85e" d="M32,12c-11,0-20,9-20,20s9,20,20,20s20-9,20-20S43,12,32,12z M32,46c-7.7,0-14-6.3-14-14s6.3-14,14-14s14,6.3,14,14
	S39.7,46,32,46z"/>
<path fill="#c9a85e" d="M32,20c-6.6,0-12,5.4-12,12s5.4,12,12,12s12-5.4,12-12S38.6,20,32,20z M32,38c-3.3,0-6-2.7-6-6s2.7-6,6-6
	s6,2.7,6,6S35.3,38,32,38z"/>
</svg>
